{"asset":{"version":"2.0","generator":"THREE.GLTFExporter"},"scenes":[{"name":"AuxScene","nodes":[1]}],"scene":0,"nodes":[{"name":"default.008","mesh":0},{"matrix":[-0.06,0,-7.347880794884118e-18,0,0,0.06,0,0,7.347880794884118e-18,0,-0.06,0,0,0,0,1],"extras":{"orig_length":55.13214111328125},"children":[0]}],"bufferViews":[{"buffer":0,"byteOffset":0,"byteLength":5904,"target":34962,"byteStride":12},{"buffer":0,"byteOffset":5904,"byteLength":5904,"target":34962,"byteStride":12},{"buffer":0,"byteOffset":11808,"byteLength":3936,"target":34962,"byteStride":8}],"buffers":[{"byteLength":15744,"uri":"data:application/octet-stream;base64,"}],"accessors":[{"bufferView":0,"componentType":5126,"count":492,"max":[9.494346618652344,27.881933212280273,27.726795196533203],"min":[-9.325874328613281,0.04349600151181221,-27.405345916748047],"type":"VEC3"},{"bufferView":1,"componentType":5126,"count":492,"max":[1,1,0],"min":[-1,-0.707099974155426,-1],"type":"VEC3"},{"bufferView":2,"componentType":5126,"count":492,"max":[0.9966970086097717,0.9990360140800476],"min":[0.00184299994725734,0.004118999931961298],"type":"VEC2"}],"materials":[{"pbrMetallicRoughness":{"baseColorFactor":[0.6038273388475408,0.6038273388475408,0.6038273388475408,1],"metallicFactor":0.5,"roughnessFactor":0.5,"baseColorTexture":{"index":0,"texCoord":0}},"name":"trains"}],"textures":[{"sampler":0,"source":0}],"samplers":[{"magFilter":9729,"minFilter":9987,"wrapS":10497,"wrapT":10497}],"images":[{"mimeType":"image/png","uri":"data:image/png;base64,"}],"meshes":[{"primitives":[{"mode":4,"attributes":{"POSITION":0,"NORMAL":1,"TEXCOORD_0":2},"material":0}]}]}